<svg xmlns="http://www.w3.org/2000/svg" viewBox="0 0 97.53 34.71"><g id="Layer_2" data-name="Layer 2"><g id="Layer_1-2" data-name="Layer 1"><path d="M10.06,9.75H0V.83H30.17V9.75H20.11V33.88h-10Z"/><path d="M31.25,20.62V14.09C31.25,6,38,0,47.76,0S64.27,6,64.27,14.09v6.53c0,8.1-6.79,14.09-16.51,14.09S31.25,28.72,31.25,20.62Zm16.51,5.16c3.65,0,6.2-2.19,6.2-4.87V13.8c0-2.69-2.55-4.87-6.2-4.87s-6.2,2.18-6.2,4.87v7.11C41.56,23.59,44.12,25.78,47.76,25.78Z"/><path d="M68,.83H86.55c6.46,0,11,4.34,11,10.57v.95a9.55,9.55,0,0,1-3.85,7.9v.24a7.74,7.74,0,0,1,3.85,6.78v6.61h-10V26.73a2.19,2.19,0,0,0-2.43-2.14h-7v9.29H68ZM84.67,16.4a2.53,2.53,0,0,0,2.68-2.64V12a2.53,2.53,0,0,0-2.68-2.64H78.09v7Z"/></g></g></svg>