<svg xmlns="http://www.w3.org/2000/svg" viewBox="0 0 259.41 33.06"><g id="Layer_2" data-name="Layer 2"><g id="Layer_1-2" data-name="Layer 1"><path d="M0,0H18C25.35,0,30.5,4.79,30.5,11.65v2.4C30.5,20.91,25.35,25.7,18,25.7H10.06v7.36H0ZM18,16.78a2.35,2.35,0,0,0,2.48-2.44v-3A2.34,2.34,0,0,0,18,8.93H10.06v7.85Z"/><path d="M33.77,0h10V33.06h-10Z"/><path d="M49.18,0H67.7c6.45,0,11,4.34,11,10.58v.95a9.52,9.52,0,0,1-3.86,7.89v.25a7.72,7.72,0,0,1,3.86,6.77v6.62H68.62V25.91a2.2,2.2,0,0,0-2.43-2.15H59.24v9.3H49.18ZM65.82,15.58a2.54,2.54,0,0,0,2.68-2.65V11.2a2.54,2.54,0,0,0-2.68-2.65H59.24v7Z"/><path d="M91.87,0H105l11,33.06H105.41l-1.6-5.58H93l-1.59,5.58H80.86Zm9.6,19.3L98.54,8.93h-.26L95.35,19.3Z"/><path d="M122.75,8.93H112.69V0h30.17V8.93H132.81V33.06H122.75Z"/><path d="M145.79,0h26.65V7.93H155.85v4.59h16.59v7.69H155.85v4.91h16.59v7.94H145.79Z"/><path d="M177.21,0h18.52c6.45,0,11,4.34,11,10.58v.95a9.52,9.52,0,0,1-3.86,7.89v.25a7.72,7.72,0,0,1,3.86,6.77v6.62H196.65V25.91a2.2,2.2,0,0,0-2.43-2.15h-6.95v9.3H177.21Zm16.63,15.58a2.54,2.54,0,0,0,2.69-2.65V11.2a2.54,2.54,0,0,0-2.69-2.65h-6.57v7Z"/><path d="M211.14,0H221.2V33.06H211.14Z"/><path d="M235.32,0h13.07l11,33.06H248.85l-1.59-5.58H236.45l-1.59,5.58H224.3Zm9.59,19.3L242,8.93h-.25L238.8,19.3Z"/></g></g></svg>