<svg xmlns="http://www.w3.org/2000/svg" viewBox="0 0 254.38 34.71"><g id="Layer_2" data-name="Layer 2"><g id="Layer_1-2" data-name="Layer 1"><path d="M0,.83H26.4V9.75H10.06v5.83H26.4v8.84H10.06v9.46H0Z"/><path d="M30.08.83H40.13V33.88H30.08Z"/><path d="M45.5.83h10V25H71.89v8.92H45.5Z"/><path d="M73.15,20.62V14.09C73.15,6,79.93,0,89.65,0s16.51,6,16.51,14.09v6.53c0,8.1-6.79,14.09-16.51,14.09S73.15,28.72,73.15,20.62Zm16.5,5.16c3.65,0,6.2-2.19,6.2-4.87V13.8c0-2.69-2.55-4.88-6.2-4.88s-6.2,2.19-6.2,4.88v7.11C83.45,23.59,86,25.78,89.65,25.78Z"/><path d="M108.46,23.51V22.6h10.06v1.2c0,1,1.72,2.23,4.19,2.23s4.19-.91,4.19-1.9C126.9,20.66,109,21,109,10.25,109,4.17,114.33,0,122.62,0s13.66,4.54,13.66,11.28v.54h-9.63v-.91c0-1-1.47-2.23-3.94-2.23S119,9.54,119,10.49C119,14.3,137,12.6,137,23.68c0,6.52-5.82,11-14.28,11S108.46,30.16,108.46,23.51Z"/><path d="M139.25,20.62V14.09C139.25,6,146,0,155.76,0s16.51,6,16.51,14.09v6.53c0,8.1-6.79,14.09-16.51,14.09S139.25,28.72,139.25,20.62Zm16.51,5.16c3.65,0,6.2-2.19,6.2-4.87V13.8c0-2.69-2.55-4.88-6.2-4.88s-6.2,2.19-6.2,4.88v7.11C149.56,23.59,152.12,25.78,155.76,25.78Z"/><path d="M176,.83h26.39V9.75H186.09v5.83h16.34v8.84H186.09v9.46H176Z"/><path d="M206.12.83h10V33.88h-10Z"/><path d="M230.29.83h13.07l11,33.05H243.82l-1.59-5.58H231.42l-1.59,5.58H219.27Zm9.59,19.29L237,9.75h-.25l-2.93,10.37Z"/></g></g></svg>