<svg xmlns="http://www.w3.org/2000/svg" viewBox="0 0 142.99 34.71"><g id="Layer_2" data-name="Layer 2"><g id="Layer_1-2" data-name="Layer 1"><path d="M0,.83H10.06V12.48H21V.83H31V33.88H21V21.4H10.06V33.88H0Z"/><path d="M34.77,20.62V14.09C34.77,6,41.56,0,51.28,0S67.79,6,67.79,14.09v6.53c0,8.1-6.79,14.09-16.51,14.09S34.77,28.72,34.77,20.62Zm16.51,5.16c3.64,0,6.2-2.19,6.2-4.87V13.8c0-2.69-2.56-4.87-6.2-4.87s-6.2,2.18-6.2,4.87v7.11C45.08,23.59,47.63,25.78,51.28,25.78Z"/><path d="M71.55.83H88.77l2.35,23.51h.29L94,.83h17V33.88h-9.76V10.08h-.42l-3.27,23.8H85.05l-3.27-23.8h-.42v23.8H71.55Z"/><path d="M116.34.83H143V8.76h-16.6v4.59H143V21h-16.6V26H143v7.93H116.34Z"/></g></g></svg>