<svg xmlns="http://www.w3.org/2000/svg" viewBox="0 0 383.79 34.71"><g id="Layer_2" data-name="Layer 2"><g id="Layer_1-2" data-name="Layer 1"><path d="M0,20.62V14.09C0,5.83,6.83,0,16.55,0c9.18,0,15.63,5.12,15.63,12.4v2.27H21.87V12.11c0-1.74-2.39-3.19-5.45-3.19-3.72,0-6.11,2.15-6.11,4.88v7.11c0,2.72,2.39,4.87,6.11,4.87,3.06,0,5.45-1.44,5.45-3.18V20H32.18v2.27c0,7.27-6.45,12.4-15.63,12.4C6.83,34.71,0,28.88,0,20.62Z"/><path d="M34.35,20.62V14.09C34.35,6,41.14,0,50.86,0S67.37,6,67.37,14.09v6.53c0,8.1-6.79,14.09-16.51,14.09S34.35,28.72,34.35,20.62Zm16.51,5.16c3.65,0,6.2-2.19,6.2-4.87V13.8c0-2.69-2.55-4.88-6.2-4.88s-6.2,2.19-6.2,4.88v7.11C44.66,23.59,47.22,25.78,50.86,25.78Z"/><path d="M71.14.83H86L92.67,23.3h.42L92.92.83h9.89V33.88H87.94L81.28,11.4h-.42L81,33.88H71.14Z"/><path d="M106.58,20.62V14.09C106.58,6,113.37,0,123.09,0s16.5,6,16.5,14.09v6.53c0,8.1-6.78,14.09-16.5,14.09S106.58,28.72,106.58,20.62Zm16.51,5.16c3.64,0,6.2-2.19,6.2-4.87V13.8c0-2.69-2.56-4.88-6.2-4.88s-6.21,2.19-6.21,4.88v7.11C116.88,23.59,119.44,25.78,123.09,25.78Z"/><path d="M141.77,20.62V14.09C141.77,5.83,148.6,0,158.32,0,167.49,0,174,5.12,174,12.4v2.27H163.64V12.11c0-1.74-2.39-3.19-5.45-3.19-3.73,0-6.11,2.15-6.11,4.88v7.11c0,2.72,2.38,4.87,6.11,4.87,3.06,0,5.45-1.44,5.45-3.18V20H174v2.27c0,7.27-6.46,12.4-15.63,12.4C148.6,34.71,141.77,28.88,141.77,20.62Z"/><path d="M177.71.83h10.06V33.88H177.71Z"/><path d="M193.13.83h17.22l2.35,23.51H213L215.55.83h17V33.88h-9.77V10.08h-.42l-3.26,23.8H206.62l-3.27-23.8h-.42v23.8h-9.8Z"/><path d="M237.91.83H248V33.88H237.91Z"/><path d="M253.33.83H280V8.76H263.39v4.59H280V21H263.39V26H280v7.93H253.33Z"/><path d="M284.75.83h14.88l6.66,22.47h.42L306.54.83h9.89V33.88H301.55L294.89,11.4h-.42l.17,22.48h-9.89Z"/><path d="M329.58,9.75H319.52V.83h30.17V9.75H339.63V33.88H329.58Z"/><path d="M350.78,20.62V14.09C350.78,6,357.56,0,367.28,0s16.51,6,16.51,14.09v6.53c0,8.1-6.79,14.09-16.51,14.09S350.78,28.72,350.78,20.62Zm16.5,5.16c3.65,0,6.2-2.19,6.2-4.87V13.8c0-2.69-2.55-4.88-6.2-4.88s-6.2,2.19-6.2,4.88v7.11C361.08,23.59,363.64,25.78,367.28,25.78Z"/></g></g></svg>