<svg xmlns="http://www.w3.org/2000/svg" viewBox="0 0 98.45 34.71"><g id="Layer_2" data-name="Layer 2"><g id="Layer_1-2" data-name="Layer 1"><path d="M0,20.62V.83H10.06V20.91c0,2.68,2.34,4.79,5.69,4.79s5.7-2.11,5.7-4.79V.83H31.51V20.62c0,8.26-6.5,14.09-15.76,14.09S0,28.88,0,20.62Z"/><path d="M34.56,23.51V22.6H44.62v1.2c0,1,1.72,2.23,4.19,2.23S53,25.12,53,24.13C53,20.66,35.07,21,35.07,10.25,35.07,4.17,40.43,0,48.72,0S62.38,4.54,62.38,11.28v.54H52.75v-.91c0-1-1.47-2.23-3.94-2.23s-3.69.86-3.69,1.81c0,3.81,17.93,2.11,17.93,13.19,0,6.52-5.82,11-14.28,11S34.56,30.16,34.56,23.51Z"/><path d="M74.36.83H87.43l11,33.05H87.9L86.3,28.3H75.49L73.9,33.88H63.34ZM84,20.12,81,9.75h-.25L77.84,20.12Z"/></g></g></svg>