<svg xmlns="http://www.w3.org/2000/svg" viewBox="0 0 173.15 34.71"><g id="Layer_2" data-name="Layer 2"><g id="Layer_1-2" data-name="Layer 1"><path d="M19.4,27.11H0V18.18L4.52.83H14.58L10.06,18.18H19.4V.83H29.45V33.88h-10Z"/><path d="M33.22,20.62V14.09C33.22,5.83,40.05,0,49.77,0,59,0,65.4,5.12,65.4,12.4v2.27H55.09V12.11c0-1.74-2.39-3.18-5.44-3.18-3.73,0-6.12,2.14-6.12,4.87v7.11c0,2.72,2.39,4.87,6.12,4.87,3.05,0,5.44-1.44,5.44-3.18V20H65.4v2.27c0,7.27-6.45,12.4-15.63,12.4C40.05,34.71,33.22,28.88,33.22,20.62Z"/><path d="M69.17.83h10V12.48h10.9V.83h10V33.88h-10V21.4H79.22V33.88h-10Z"/><path d="M114.29.83h13.07l11,33.05H127.82l-1.59-5.58H115.42l-1.59,5.58H103.27Zm9.59,19.29L121,9.75h-.25l-2.94,10.37Z"/><path d="M141.47.83h14.88L163,23.3h.42L163.26.83h9.89V33.88H158.28L151.61,11.4h-.42l.17,22.48h-9.89Z"/></g></g></svg>