<svg xmlns="http://www.w3.org/2000/svg" viewBox="0 0 432.93 34.71"><g id="Layer_2" data-name="Layer 2"><g id="Layer_1-2" data-name="Layer 1"><path d="M0,20.62V14.09C0,5.83,6.83,0,16.55,0c9.18,0,15.63,5.12,15.63,12.4v2.27H21.87V12.11c0-1.74-2.39-3.18-5.45-3.18-3.72,0-6.11,2.14-6.11,4.87v7.11c0,2.72,2.39,4.87,6.11,4.87,3.06,0,5.45-1.44,5.45-3.18V20H32.18v2.27c0,7.27-6.45,12.4-15.63,12.4C6.83,34.71,0,28.88,0,20.62Z"/><path d="M36,.83H46V33.88H36Z"/><path d="M51.36.83H71.64c5.4,0,9.22,3.76,9.22,9.09v.29A7.43,7.43,0,0,1,76,17.4v.33a7,7,0,0,1,4.86,6.81v.29a8.8,8.8,0,0,1-9.22,9.05H51.36ZM69,13.43a1.64,1.64,0,0,0,1.72-1.7v-1.4A1.64,1.64,0,0,0,69,8.64H61.42v4.79Zm0,12.68a1.64,1.64,0,0,0,1.72-1.69V22.68A1.64,1.64,0,0,0,69,21H61.42v5.12Z"/><path d="M85,.83h26.65V8.76H95.1v4.59h16.59V21H95.1V26h16.59v7.93H85Z"/><path d="M116.46.83H135c6.46,0,11,4.34,11,10.57v.95a9.57,9.57,0,0,1-3.85,7.9v.24A7.76,7.76,0,0,1,146,27.27v6.61H135.91V26.73a2.2,2.2,0,0,0-2.44-2.14h-7v9.29H116.46ZM133.1,16.4a2.53,2.53,0,0,0,2.68-2.64V12a2.53,2.53,0,0,0-2.68-2.64h-6.58v7Z"/><path d="M148.93,23.51V22.6H159v1.2c0,1,1.72,2.23,4.19,2.23s4.19-.91,4.19-1.9c0-3.47-17.93-3.14-17.93-13.88C149.44,4.17,154.8,0,163.09,0s13.66,4.55,13.66,11.28v.54h-9.63v-.91c0-1-1.47-2.23-3.94-2.23s-3.69.86-3.69,1.82c0,3.8,17.93,2.1,17.93,13.18,0,6.52-5.82,11-14.28,11S148.93,30.16,148.93,23.51Z"/><path d="M181.32.83H208V8.76H191.37v4.59H208V21H191.37V26H208v7.93H181.32Z"/><path d="M211.14,20.87V14.09C211.14,6,217.93,0,227.61,0c9.26,0,15.71,5.29,15.71,12.4v1H233V12.11c0-1.7-2.17-3.18-5.32-3.18-3.68,0-6.24,2.18-6.24,4.87v7.07c0,3.1,2.47,5.28,6.45,5.28,2.48,0,4.53-.86,5.11-2.18v-.34H227.4V16.57h15.92V33.88h-9l-.67-3.43h-.3a11.05,11.05,0,0,1-9,4C216.67,34.46,211.14,28.76,211.14,20.87Z"/><path d="M246.75,20.62V.83h10.06V20.91c0,2.68,2.35,4.79,5.7,4.79s5.7-2.11,5.7-4.79V.83h10.05V20.62c0,8.26-6.49,14.09-15.75,14.09S246.75,28.88,246.75,20.62Z"/><path d="M282.78.83H301.3c6.45,0,11,4.34,11,10.57v.95a9.55,9.55,0,0,1-3.86,7.9v.24a7.75,7.75,0,0,1,3.86,6.78v6.61H302.22V26.73a2.19,2.19,0,0,0-2.43-2.14h-7v9.29H282.78ZM299.42,16.4a2.53,2.53,0,0,0,2.68-2.64V12a2.53,2.53,0,0,0-2.68-2.64h-6.58v7Z"/><path d="M316.72.83h10V33.88h-10Z"/><path d="M332.13.83h17.52c8.08,0,13.74,5.57,13.74,13.51v6c0,7.93-5.66,13.51-13.74,13.51H332.13ZM349.65,25c2.18,0,3.68-1.74,3.68-4.3V14.05c0-2.56-1.5-4.3-3.68-4.3h-7.46V25Z"/><path d="M374.49.83h13.07l11,33.05H388l-1.59-5.58H375.62L374,33.88H363.47Zm9.59,19.29L381.15,9.75h-.25L378,20.12Z"/><path d="M401.68.83h17.51c8.09,0,13.74,5.57,13.74,13.51v6c0,7.93-5.65,13.51-13.74,13.51H401.68ZM419.19,25c2.18,0,3.69-1.74,3.69-4.3V14.05c0-2.56-1.51-4.3-3.69-4.3h-7.46V25Z"/></g></g></svg>