<svg xmlns="http://www.w3.org/2000/svg" viewBox="0 0 1345.2 269.05"><g id="Layer_2" data-name="Layer 2"><g id="Layer_1-2" data-name="Layer 1"><path d="M1322.07,262.64h-82.54l-11.8-178.4h-2l-11.79,178.4h-82.55L1108.22,6.41H1162l14.51,181.93h1.82L1189.18,6.41h75.06l10.89,181.93h1.81L1291.46,6.41h53.74Z"/><path d="M1091.45,262.64H947.22V201.15H1037V163h-89.8V103.46H1037V67.9h-89.8V6.41h144.23Z"/><path d="M921.37,262.64H778.5V193.46h88.44V6.41h54.43Z"/><path d="M682.12,269.05c-49.66,0-84.58-39.72-84.58-96.09V155.34h55.78V175.2c0,13.46,12.93,24.67,29.48,24.67,20.19,0,33.11-16.66,33.11-37.8V107c0-21.14-12.92-37.8-33.11-37.8-16.55,0-29.48,11.21-29.48,24.67v19.86H597.54V96.09C597.54,39.72,632.46,0,682.12,0c52.62,0,89.58,45.16,89.58,109.22v50.61C771.7,223.89,734.74,269.05,682.12,269.05Z"/><path d="M496.4,269.05c-52.61,0-89.35-46.44-89.35-109.22V109.22C407.05,46.44,443.79,0,496.4,0s89.35,46.44,89.35,109.22v50.61C585.75,222.61,549,269.05,496.4,269.05Zm33.56-107V107c0-20.82-13.83-37.8-33.56-37.8s-33.56,17-33.56,37.8v55.09c0,20.82,13.83,37.8,33.56,37.8S530,182.89,530,162.07Z"/><path d="M386.64,262.64H333.58V78.15h-2.27L313.62,262.64H246L228.35,78.15h-2.26V262.64H173.25V6.41h92.07l13.83,182.25h1.59L293.44,6.41h93.2Z"/><path d="M144.23,262.64H0V201.15H89.8V163H0V103.46H89.8V67.9H0V6.41H144.23Z"/></g></g></svg>