<svg xmlns="http://www.w3.org/2000/svg" viewBox="0 0 192.09 34.71"><g id="Layer_2" data-name="Layer 2"><g id="Layer_1-2" data-name="Layer 1"><path d="M0,.83H17.22l2.35,23.51h.29L22.41.83h17V33.88H29.66V10.08h-.42L26,33.88H13.49l-3.27-23.8H9.8v23.8H0Z"/><path d="M44,20.62V.83H54V20.91c0,2.68,2.35,4.79,5.7,4.79s5.7-2.11,5.7-4.79V.83h10V20.62c0,8.26-6.49,14.09-15.75,14.09S44,28.88,44,20.62Z"/><path d="M78.51,23.51V22.6h10v1.2c0,1,1.72,2.23,4.19,2.23s4.19-.91,4.19-1.9C96.94,20.66,79,21,79,10.25,79,4.17,84.37,0,92.67,0s13.66,4.54,13.66,11.28v.54H96.69v-.91c0-1-1.46-2.23-3.94-2.23s-3.68.86-3.68,1.81C89.07,14.3,107,12.6,107,23.68c0,6.52-5.82,11-14.29,11S78.51,30.16,78.51,23.51Z"/><path d="M110.89.83H121V33.88H110.89Z"/><path d="M124.72,20.62V14.09C124.72,5.83,131.55,0,141.27,0c9.17,0,15.62,5.12,15.62,12.4v2.27h-10.3V12.11c0-1.74-2.39-3.19-5.45-3.19-3.73,0-6.12,2.15-6.12,4.88v7.11c0,2.72,2.39,4.87,6.12,4.87,3.06,0,5.45-1.44,5.45-3.18V20h10.3v2.27c0,7.27-6.45,12.4-15.62,12.4C131.55,34.71,124.72,28.88,124.72,20.62Z"/><path d="M168,.83h13.08l11,33.05H181.53l-1.59-5.58H169.13l-1.6,5.58H157Zm9.6,19.29L174.66,9.75h-.26l-2.93,10.37Z"/></g></g></svg>