<svg xmlns="http://www.w3.org/2000/svg" viewBox="0 0 63.81 34.71"><g id="Layer_2" data-name="Layer 2"><g id="Layer_1-2" data-name="Layer 1"><path d="M0,20.62V14.09C0,6,6.79,0,16.51,0S33,6,33,14.09v6.53c0,8.1-6.79,14.09-16.51,14.09S0,28.72,0,20.62Zm16.51,5.16c3.64,0,6.2-2.19,6.2-4.87V13.8c0-2.69-2.56-4.87-6.2-4.87s-6.2,2.18-6.2,4.87v7.11C10.31,23.59,12.86,25.78,16.51,25.78Z"/><path d="M35.32,23.51V22.6h10v1.2c0,1,1.72,2.23,4.19,2.23s4.19-.91,4.19-1.9c0-3.47-17.93-3.14-17.93-13.88C35.82,4.17,41.18,0,49.48,0S63.14,4.55,63.14,11.28v.54H53.5v-.91c0-1-1.47-2.23-3.94-2.23s-3.69.86-3.69,1.82c0,3.8,17.94,2.1,17.94,13.18,0,6.52-5.83,11-14.29,11S35.32,30.16,35.32,23.51Z"/></g></g></svg>