<svg xmlns="http://www.w3.org/2000/svg" viewBox="0 0 1303.93 121.31"><g id="Layer_2" data-name="Layer 2"><g id="Layer_1-2" data-name="Layer 1"><path d="M0,2.89H47.11C63.53,2.89,75,18.05,75,39.86v3.32c0,11.7-3.73,21.52-9.8,27.59v.86C71.31,76.69,75,85.06,75,95.32v23.11H49.46v-25c0-4.48-2.56-7.51-6.18-7.51H25.58v32.5H0ZM42.32,57.34c4,0,6.82-3.76,6.82-9.25V42c0-5.49-2.77-9.25-6.82-9.25H25.58V57.34Z"/><path d="M108.62,2.89h33.26l28,115.54H143.05L139,98.93H111.5l-4,19.5H80.59ZM133,70.33l-7.46-36.25h-.64l-7.46,36.25Z"/><path d="M166.51,2.89h25.26l6.83,82h.85l5.11-82h35.29l5.11,82h.86l6.82-82H277.9L267,118.43h-38.8L222.69,38h-1l-5.55,80.45h-38.8Z"/><path d="M285.8,2.89h43.81l6,82.17h.75l6.5-82.17H386.1V118.43H361.26V35.24H360.2l-8.32,83.19H320.12L311.8,35.24h-1.06v83.19H285.8Z"/><path d="M395.7,72.07V49.25C395.7,20.94,413,0,437.7,0s42,20.94,42,49.25V72.07c0,28.3-17.27,49.24-42,49.24S395.7,100.37,395.7,72.07Zm42,18.05c9.27,0,15.77-7.65,15.77-17V48.24c0-9.39-6.5-17-15.77-17s-15.78,7.66-15.78,17.05V73.08C421.92,82.47,428.42,90.12,437.7,90.12Z"/><path d="M489.29,2.89h47.12c16.41,0,27.93,15.16,27.93,37v3.32c0,11.7-3.73,21.52-9.81,27.59v.86c6.08,5.06,9.81,13.43,9.81,23.69v23.11H538.75v-25c0-4.48-2.55-7.51-6.18-7.51H514.88v32.5H489.29Zm42.32,54.45c4,0,6.82-3.76,6.82-9.25V42c0-5.49-2.77-9.25-6.82-9.25H514.88V57.34Z"/><path d="M575.64,2.89h45.73c18.76,0,31.87,16.75,31.87,40.73V52c0,24-13.11,40.73-31.87,40.73H601.22v25.71H575.64Zm45.73,58.63c3.73,0,6.29-3.46,6.29-8.52V42.6c0-5.05-2.56-8.52-6.29-8.52H601.22V61.52Z"/><path d="M661.56,2.89h25.58V43.62h27.72V2.89h25.58V118.43H714.86V74.81H687.14v43.62H661.56Z"/><path d="M754.09,2.89h67.15V34.08H779.67V54.45h41.57v30.9H779.67v33.08H754.09Z"/><path d="M826.58,72.07V49.25c0-28.31,17.27-49.25,42-49.25s42,20.94,42,49.25V72.07c0,28.3-17.26,49.24-42,49.24S826.58,100.37,826.58,72.07Zm42,18.05c9.27,0,15.77-7.65,15.77-17V48.24c0-9.39-6.5-17-15.77-17S852.8,38.85,852.8,48.24V73.08C852.8,82.47,859.3,90.12,868.58,90.12Z"/><path d="M916.44,82.18V79H942v4.19c0,3.46,4.37,7.8,10.66,7.8s10.66-3.18,10.66-6.65c0-12.13-45.62-11-45.62-48.52C917.72,14.59,931.36,0,952.47,0s34.75,15.89,34.75,39.43V41.3H962.7V38.13c0-3.47-3.73-7.8-10-7.8s-9.38,3-9.38,6.35c0,13.29,45.63,7.37,45.63,46.07,0,22.82-14.82,38.56-36.35,38.56C931.36,121.31,916.44,105.43,916.44,82.18Z"/><path d="M998.84,2.89h25.59V118.43H998.84Z"/><path d="M1034.34,82.18V79h25.58v4.19c0,3.46,4.37,7.8,10.66,7.8s10.66-3.18,10.66-6.65c0-12.13-45.62-11-45.62-48.52,0-21.23,13.64-35.82,34.75-35.82s34.75,15.89,34.75,39.43V41.3H1080.6V38.13c0-3.47-3.73-7.8-10-7.8s-9.38,3-9.38,6.35c0,13.29,45.63,7.37,45.63,46.07,0,22.82-14.82,38.56-36.35,38.56C1049.26,121.31,1034.34,105.43,1034.34,82.18Z"/><path d="M1164.61,60.66,1146.16,2.89h27.72L1187,46.65h.43l13.11-43.76h27.71L1209.8,60.66l18.44,57.77h-27.71l-13.11-43.76H1187l-13.11,43.76h-27.72Z"/><path d="M1236.77,2.89h25.59V87.23h41.57v31.2h-67.16Z"/></g></g></svg>