<svg xmlns="http://www.w3.org/2000/svg" viewBox="0 0 216.55 34.71"><g id="Layer_2" data-name="Layer 2"><g id="Layer_1-2" data-name="Layer 1"><path d="M0,.83H18.52c6.45,0,11,4.33,11,10.57v.95a9.55,9.55,0,0,1-3.86,7.9v.24a7.75,7.75,0,0,1,3.86,6.78v6.61H19.44V26.73A2.2,2.2,0,0,0,17,24.58h-7v9.3H0ZM16.63,16.4a2.52,2.52,0,0,0,2.68-2.64V12a2.52,2.52,0,0,0-2.68-2.64H10.06v7Z"/><path d="M42.69.83H55.76l11,33.05H56.22L54.63,28.3H43.82l-1.59,5.58H31.67Zm9.6,19.29L49.35,9.75H49.1L46.17,20.12Z"/><path d="M69.88.83H84.75L91.41,23.3h.42L91.67.83h9.88V33.88H86.68L80,11.4H79.6l.17,22.48H69.88Z"/><path d="M106.91.83h17.52c8.08,0,13.74,5.57,13.74,13.51v6c0,7.93-5.66,13.51-13.74,13.51H106.91ZM124.43,25c2.17,0,3.68-1.74,3.68-4.3V14.05c0-2.56-1.51-4.3-3.68-4.3H117V25Z"/><path d="M140.34,20.62V14.09C140.34,6,147.13,0,156.85,0s16.51,6,16.51,14.09v6.53c0,8.1-6.79,14.09-16.51,14.09S140.34,28.72,140.34,20.62Zm16.51,5.16c3.65,0,6.2-2.19,6.2-4.87V13.8c0-2.69-2.55-4.88-6.2-4.88s-6.2,2.19-6.2,4.88v7.11C150.65,23.59,153.21,25.78,156.85,25.78Z"/><path d="M177.13.83h17.22l2.34,23.51h.3L199.54.83h17V33.88h-9.76V10.08h-.42l-3.27,23.8H190.62l-3.27-23.8h-.42v23.8h-9.8Z"/></g></g></svg>